<svg viewBox="0 0 30 30" fill="none" xmlns="http://www.w3.org/2000/svg">
<path d="M2.26284 12.1593C2.61446 11.8078 3.09128 11.6104 3.58847 11.6104C4.08565 11.6104 4.56248 11.8078 4.91409 12.1593L11.5441 18.7893L24.8003 5.5312C24.9744 5.35699 25.1811 5.21878 25.4086 5.12445C25.6361 5.03013 25.88 4.98153 26.1262 4.98145C26.3725 4.98136 26.6164 5.02978 26.844 5.12395C27.0715 5.21811 27.2783 5.35618 27.4525 5.53026C27.6267 5.70435 27.7649 5.91104 27.8593 6.13854C27.9536 6.36603 28.0022 6.60988 28.0023 6.85616C28.0024 7.10244 27.9539 7.34633 27.8598 7.57389C27.7656 7.80145 27.6276 8.00824 27.4535 8.18245L11.5441 24.0918L2.26284 14.8106C1.91133 14.459 1.71387 13.9821 1.71387 13.485C1.71387 12.9878 1.91133 12.5109 2.26284 12.1593Z" fill="currentColor"/>
</svg>
